<svg id="Layer_1" data-name="Layer 1" xmlns="http://www.w3.org/2000/svg" xmlns:xlink="http://www.w3.org/1999/xlink" viewBox="0 0 416.31 555.28"><defs><style>.cls-1{fill:url(#linear-gradient);}.cls-2,.cls-3{fill:#fff;}.cls-2,.cls-4{opacity:0.2;}.cls-3{opacity:0.4;}.cls-4,.cls-5,.cls-6{fill:#1f5a68;}.cls-5{opacity:0.13;}.cls-6{opacity:0.08;}</style><linearGradient id="linear-gradient" x1="33.69" y1="455.01" x2="416.75" y2="200.02" gradientUnits="userSpaceOnUse"><stop offset="0" stop-color="#3ac5ff"/><stop offset="1" stop-color="#27ff97"/></linearGradient></defs><path class="cls-1" d="M381.62,0A173.46,173.46,0,0,0,208.15,173.46v.18H173.46A173.48,173.48,0,0,0,0,347.1c0,1.49,0,3,.07,4.47C2.43,464.49,94.68,555.28,208.15,555.28c115,0,208.16-93.19,208.16-208.18V34.69A34.68,34.68,0,0,0,381.62,0ZM173.46,312.41a34.69,34.69,0,1,1-34.69,34.69A34.65,34.65,0,0,1,173.46,312.41Z"/><path class="cls-2" d="M.18,354.31a138.77,138.77,0,0,0,277.36-7.21V173.46A104.08,104.08,0,0,1,381.62,69.38a34.68,34.68,0,0,1,34.69,34.7v69.38a34.7,34.7,0,0,0-69.39,0V347.1c0,95.81-77.67,173.49-173.46,173.49A173.45,173.45,0,0,1,.18,354.31Z"/><path class="cls-3" d="M.18,354.31A173.45,173.45,0,0,0,173.46,520.59c95.79,0,173.46-77.68,173.46-173.49V173.46a34.7,34.7,0,0,1,69.39,0V347.1c0,115-93.18,208.18-208.16,208.18C95.61,555.28,3.92,466,.18,354.31Z"/><path class="cls-4" d="M208.14,347a34.66,34.66,0,0,1-22.73,32.15A95.4,95.4,0,0,1,.3,351.93a104.07,104.07,0,0,0,208-4.92Z"/><path class="cls-5" d="M138.77,347.1a34.68,34.68,0,0,1,52.13-30V243H173.46A104.08,104.08,0,0,0,69.42,347v.14a104.15,104.15,0,0,0,54.07,91.18,95.66,95.66,0,0,0,61.75-58.58,34.62,34.62,0,0,1-46.47-32.6Z"/><path class="cls-4" d="M208.24,173.64A17.34,17.34,0,0,0,190.9,191h0V317.12a34.64,34.64,0,0,1,17.25,30h.09l-.08-138.78h.08Z"/><path class="cls-6" d="M190.9,191h0a17.33,17.33,0,0,1,17.25-17.33H173.46A173.48,173.48,0,0,0,0,347.1H.07c0,.32.23,4.83.23,4.83a95.45,95.45,0,0,0,123.19,86.35A104.15,104.15,0,0,1,69.42,347.1V347A104.08,104.08,0,0,1,173.46,243H190.9Z"/></svg>